<svg width="24" height="24" viewBox="0 0 24 24" fill="none" xmlns="http://www.w3.org/2000/svg">
<path fill-rule="evenodd" clip-rule="evenodd" d="M20.6154 6.63018C20.5471 6.37639 20.3419 6.17101 20.0876 6.10252L20.0798 6.10042C19.8609 6.0405 19.2906 5.96081 18.3876 5.89341C17.5416 5.83027 16.5522 5.7872 15.5974 5.75816C14.6458 5.72923 13.7449 5.71471 13.0808 5.70744C12.7492 5.70381 12.4776 5.702 12.2894 5.70109C12.1954 5.70064 12.1223 5.70042 12.073 5.70031L11.9264 5.7003C11.8771 5.70041 11.8039 5.70062 11.7098 5.70106C11.5215 5.70193 11.2498 5.70367 10.918 5.70717C10.2536 5.71416 9.35213 5.72814 8.39995 5.75599C7.44462 5.78393 6.45399 5.8254 5.60646 5.88625C4.71847 5.95 4.14593 6.02551 3.91244 6.08457C3.67945 6.15239 3.45579 6.37123 3.38542 6.62611C3.21863 7.26486 3.11076 8.39392 3.05402 9.50386C3.02704 10.0316 3.01348 10.5099 3.0067 10.8564C3.00331 11.0292 3.00164 11.1681 3.00081 11.2627L3.00009 11.3698L3.00001 11.3957L3 11.4014V11.4026L3.00001 11.4083L3.00009 11.4344L3.00081 11.542C3.00164 11.6371 3.00331 11.7767 3.0067 11.9502C3.01348 12.2982 3.02705 12.7782 3.05403 13.307C3.11096 14.4229 3.21919 15.55 3.38485 16.1758C3.45397 16.4289 3.65889 16.6332 3.91217 16.7014L3.91499 16.7022C4.14159 16.7635 4.71739 16.8432 5.61971 16.9105C6.46665 16.9737 7.45559 17.0168 8.40924 17.0458C9.35966 17.0747 10.2589 17.0892 10.9215 17.0965C11.2525 17.1001 11.5234 17.102 11.7111 17.1029C11.8049 17.1033 11.8778 17.1035 11.9269 17.1036L12.0734 17.1036C12.1227 17.1035 12.1959 17.1033 12.29 17.1029C12.4782 17.102 12.75 17.1003 13.0818 17.0968C13.7462 17.0898 14.6476 17.0758 15.5998 17.048C16.5551 17.02 17.5458 16.9785 18.3933 16.9177C19.2884 16.8534 19.863 16.7772 20.0929 16.718C20.343 16.6488 20.5453 16.4465 20.6145 16.1958C20.7813 15.5569 20.8892 14.428 20.9459 13.3181C20.9729 12.7905 20.9864 12.3122 20.9932 11.9657C20.9966 11.7928 20.9983 11.6539 20.9991 11.5593L20.9998 11.4523L20.9999 11.4263L20.9999 11.4207V11.41L21 11.4039L21 11.3781C21 11.3544 21 11.3183 20.9998 11.2709C20.9994 11.1762 20.9983 11.037 20.9956 10.8637C20.9902 10.5164 20.9783 10.037 20.9524 9.50849C20.8977 8.38943 20.7888 7.26345 20.6177 6.63861L20.6154 6.63018ZM22.9999 11.4201C22.9999 11.4201 22.9999 14.99 22.5469 16.7116C22.2931 17.6539 21.5502 18.397 20.6078 18.6506C18.8862 19.1038 12 19.1038 12 19.1038C12 19.1038 5.1317 19.1038 3.39214 18.6326C2.44969 18.3788 1.7068 17.6358 1.45302 16.6935C1 14.99 1 11.402 1 11.402C1 11.402 1 7.83189 1.45302 6.11046C1.70663 5.16818 2.46781 4.40699 3.39197 4.15338C5.11357 3.7002 11.9998 3.7002 11.9998 3.7002C11.9998 3.7002 18.8862 3.7002 20.6078 4.17134C21.5501 4.42512 22.2931 5.16801 22.5467 6.11046C23.018 7.83189 22.9999 11.4201 22.9999 11.4201Z" fill="black"/>
<path d="M11.3071 10.6987L12.5281 11.4019L11.3071 12.1052V10.6987Z" stroke="black" stroke-width="3" stroke-linecap="round" stroke-linejoin="round"/>
</svg>
