<svg width="24" height="24" viewBox="0 0 24 24" fill="none" xmlns="http://www.w3.org/2000/svg">
<path fill-rule="evenodd" clip-rule="evenodd" d="M18.4531 3.92002C17.7402 3.3437 16.8275 3 15.8462 3C13.9575 3 12.3751 4.25595 11.8968 5.95892C11.8003 6.30267 11.7487 6.66463 11.7487 7.03815C11.7487 7.35815 11.7762 7.66585 11.8438 7.95877C11.1364 7.9248 10.446 7.82861 9.77775 7.6756C7.94962 7.25696 6.28795 6.41296 4.90208 5.25393C4.3534 4.79505 3.84794 4.28679 3.3925 3.736C3.03875 4.34031 2.83125 5.032 2.83125 5.77662C2.83125 5.88113 2.83534 5.98476 2.84335 6.08735C2.858 6.27482 2.88578 6.45881 2.92573 6.63841C3.00767 7.0068 3.14083 7.3567 3.31703 7.68012C3.50941 8.03326 3.75309 8.35484 4.0374 8.63446C4.05254 8.64935 4.0678 8.66412 4.08316 8.67877C4.25889 8.84628 4.44947 8.99804 4.6525 9.13169C4.02718 9.12001 3.41312 8.94973 2.8841 8.67877C2.85582 8.66428 2.82778 8.64951 2.8 8.63446V8.67877C2.8 9.38924 2.9864 10.0561 3.3127 10.6357C3.35721 10.7147 3.40433 10.7921 3.45392 10.8678C3.48625 10.9172 3.51964 10.9658 3.55405 11.0136C3.79394 11.347 4.08356 11.6431 4.41185 11.8914C4.59932 12.0332 4.79939 12.1594 5.01 12.2681C5.0842 12.3064 5.1597 12.3425 5.23642 12.3764C5.50558 12.4951 5.78974 12.5861 6.085 12.6455C5.75125 12.7354 5.3875 12.7785 5.01 12.7785C4.7475 12.7785 4.4825 12.7637 4.23375 12.7095C4.40195 13.2157 4.66801 13.6795 5.01 14.0781C5.16092 14.2541 5.32663 14.4173 5.50524 14.5659C5.54713 14.6008 5.58973 14.6348 5.63302 14.6681C5.66478 14.6924 5.69692 14.7164 5.72941 14.7399C6.38722 15.2152 7.19233 15.5033 8.065 15.5218C7.42139 16.0176 6.69769 16.4224 5.91649 16.7147C5.75361 16.7756 5.58823 16.8316 5.42056 16.8826C4.64936 17.117 3.82962 17.2437 2.98125 17.2437C2.645 17.2437 2.3225 17.2289 2 17.1883C2.31713 17.3897 2.64451 17.5759 2.98125 17.7463C3.93065 18.2265 4.95445 18.5798 6.03267 18.7869C6.76226 18.9269 7.51677 19 8.29 19C15.835 19 19.96 12.8462 19.96 7.512L19.96 7.50668C19.9599 7.33012 19.9537 7.15953 19.945 6.99015C20.0758 6.89876 20.2032 6.8037 20.3273 6.70514C20.7795 6.34599 21.1873 5.9402 21.5514 5.49468C21.7091 5.30177 21.8586 5.1014 22 4.89415C21.2563 5.21538 20.4637 5.42831 19.6375 5.53169C20.1941 5.20449 20.6644 4.75485 21.0084 4.21769C21.1586 3.98309 21.2848 3.7318 21.3835 3.46672C21.4039 3.41183 21.4232 3.35635 21.4412 3.30031C21.4068 3.32052 21.3722 3.34048 21.3375 3.36018C21.0393 3.52922 20.7298 3.67921 20.4103 3.80971C20.368 3.82699 20.3256 3.84392 20.2829 3.8605C20.0159 3.96439 19.7421 4.05485 19.4623 4.13162C19.2755 4.18287 19.086 4.22802 18.894 4.26699C18.8764 4.27056 18.8589 4.27408 18.8412 4.27754C18.7199 4.15029 18.5902 4.03085 18.4531 3.92002ZM17.394 5.65795C17.0086 5.25387 16.4546 5 15.8462 5C14.6575 5 13.7487 5.94193 13.7487 7.03815C13.7487 7.2464 13.7669 7.39802 13.7927 7.50967C13.9333 8.11991 13.78 8.76079 13.3784 9.2413C12.9768 9.72182 12.3733 9.98651 11.7478 9.95647C9.91362 9.86839 8.17565 9.42239 6.60256 8.68736C6.67894 9.02215 6.66974 9.37875 6.56292 9.72356C6.46314 10.0456 6.28729 10.328 6.05894 10.5537C6.19213 10.611 6.33294 10.6553 6.4799 10.6849C7.3899 10.8682 8.05417 11.6535 8.08397 12.5813C8.09451 12.9096 8.02463 13.2252 7.89021 13.5067C7.9616 13.5155 8.03411 13.5207 8.10756 13.5223C8.9557 13.5404 9.70017 14.0915 9.96503 14.8974C10.2028 15.6211 10.0075 16.4087 9.47862 16.9368C14.9627 16.3422 17.96 11.6645 17.96 7.512C17.96 7.37975 17.9554 7.24416 17.9476 7.09231C17.9278 6.70593 17.7441 6.17593 17.7441 6.17593C17.7441 6.17593 17.582 5.85502 17.394 5.65795Z" fill="black"/>
</svg>
