<svg width="132" height="167" viewBox="0 0 132 167" fill="none" xmlns="http://www.w3.org/2000/svg">
<path fill-rule="evenodd" clip-rule="evenodd" d="M64.0068 31.9985C62.4061 30.1273 61.3228 27.834 61.5038 25.2644C62.0254 17.8605 72.3736 19.4892 74.3865 23.2261C76.3994 26.9629 76.1603 36.4417 73.5587 37.1096C72.5212 37.376 70.3111 36.7235 68.0616 35.3731L69.4736 45.3217H61.1367L64.0068 31.9985Z" fill="#B28B67"/>
<path fill-rule="evenodd" clip-rule="evenodd" d="M69.635 18.9193C68.5362 18.7398 65.5777 18.6164 65.0321 18.6165C64.6834 18.6165 64.3056 18.6959 64.0991 18.377C63.93 18.1159 63.9919 17.6743 63.9415 17.3713C63.8829 17.0193 63.7996 16.6719 63.7154 16.3253C63.4758 15.3391 63.1135 14.4008 62.6066 13.52C61.6554 11.8673 60.262 10.5728 58.5028 9.81948C56.5601 8.98774 54.3619 8.79728 52.2723 8.96599C50.0362 9.14649 48.0119 9.88169 45.9007 10.5736C43.8887 11.2329 41.7815 11.4924 39.6772 11.1704C37.5571 10.8461 35.9551 9.70159 34.1668 8.61536C32.3361 7.50331 30.244 6.77599 28.0798 6.94318C26.0596 7.0993 24.1976 7.93009 22.5271 9.03991C20.9641 10.0783 19.6745 11.3276 18.9464 13.0858C18.1631 14.9772 18.1638 17.0533 19.4519 18.7249C21.3188 21.1478 24.7848 21.7743 27.6684 21.712C29.3363 21.6761 30.9743 21.3729 32.549 20.8213C34.649 20.0856 36.4638 18.8387 38.4284 17.827C39.3505 17.3523 40.3035 16.9624 41.3024 16.6815C42.2718 16.4088 43.2266 16.2838 44.1043 16.867C45.0327 17.484 45.8647 18.0901 46.9269 18.4763C47.9458 18.8469 49.0252 19.0541 50.1108 19.0458C52.223 19.0295 54.3052 18.3741 56.3567 17.935C58.0296 17.577 59.8195 17.2203 61.5251 17.5644C62.2367 17.708 63.2763 18.0045 63.5333 18.7411C59.207 19.522 57.5079 24.8509 58.7275 28.7627C59.3858 30.8741 63.3427 33.3423 64.8812 32.2323C65.8559 31.5291 65.2641 30.6059 64.8812 29.9965C64.1478 28.8294 63.8969 27.3303 65.2539 26.5177C66.4244 25.8169 67.6552 27.4811 67.6785 27.4793C68.0002 27.454 70.7801 25.8882 72.6954 23.6033C74.5848 23.7149 74.8715 22.474 74.4203 21.4593C73.9691 20.4445 71.1531 19.1674 69.635 18.9193Z" fill="#191847"/>
<path fill-rule="evenodd" clip-rule="evenodd" d="M54.4134 74.037C55.0397 82.5512 95.3899 107.618 95.6253 108.321C95.7299 108.634 91.5434 118.515 83.0658 137.964L86.593 139.329C99.5962 118.731 105.764 107.334 105.096 105.14C104.14 101.997 93.7041 91.6598 73.7889 74.1276L54.4134 74.037Z" fill="#B28B67"/>
<path fill-rule="evenodd" clip-rule="evenodd" d="M83.9939 133.572L89.7526 135.66C101.896 122.014 106.656 110.755 105.788 105.018C105.209 101.194 94.8093 90.8736 74.5885 74.0579L54.0003 74.0579C54.7027 93.7754 92.1023 108.396 92.6025 109.236C93.1028 110.077 88.1799 118.306 83.9939 133.572Z" fill="#2F3676"/>
<path fill-rule="evenodd" clip-rule="evenodd" d="M81.7727 137.296C81.0518 138.137 80.6031 138.798 80.4265 139.281C80.2116 139.868 79.9962 140.76 79.7801 141.958C80.4627 142.205 86.5974 144.426 98.1842 148.622C99.2397 147.217 99.2753 146.265 98.2909 145.766C97.3065 145.268 96.4921 144.844 95.8476 144.496L88.6858 137.593C88.548 137.46 88.3281 137.464 88.1946 137.602C88.1924 137.604 88.1901 137.607 88.1879 137.609L87.1511 138.741C86.0347 138.84 85.1783 138.781 84.5819 138.565C84.0974 138.39 83.4997 137.952 82.7888 137.253L82.7888 137.253C82.516 136.984 82.0761 136.987 81.8063 137.26C81.7947 137.272 81.7835 137.284 81.7727 137.296Z" fill="#E4E4E4"/>
<path fill-rule="evenodd" clip-rule="evenodd" d="M59.0528 74.037L41.0779 117.015L23.4114 153.35H27.5795L73.1816 74.037H59.0528Z" fill="#997659"/>
<path fill-rule="evenodd" clip-rule="evenodd" d="M23.162 151.673C22.7734 152.706 22.5791 153.479 22.5791 153.992C22.5791 154.616 22.6835 155.526 22.8922 156.723C23.6188 156.723 30.1496 156.723 42.4844 156.723C42.9935 155.047 42.6996 154.142 41.6027 154.008C40.5057 153.875 39.5945 153.754 38.8689 153.646L29.7627 149.603C29.5875 149.525 29.3821 149.604 29.304 149.778C29.3026 149.781 29.3013 149.784 29.3001 149.787L28.7147 151.201C27.6993 151.673 26.8741 151.909 26.2392 151.909C25.7234 151.909 25.011 151.702 24.1021 151.287L24.1021 151.287C23.7533 151.127 23.341 151.28 23.1811 151.627C23.1742 151.642 23.1678 151.657 23.162 151.673Z" fill="#E4E4E4"/>
<path fill-rule="evenodd" clip-rule="evenodd" d="M25.0066 145.802L34.2682 147.532C41.4292 137.046 71.3984 94.0519 74.6843 74.037H54.0659C43.0928 88.5057 31.8325 135.143 25.0066 145.802Z" fill="#5C63AB"/>
<path fill-rule="evenodd" clip-rule="evenodd" d="M90.3159 64.5635L102.903 59.0581C105.108 56.8698 107.237 55.2066 109.29 54.0685C109.904 53.8738 110.953 53.815 109.834 55.4431C108.715 57.0712 107.611 58.8339 108.058 59.4045C108.505 59.9751 109.801 59.3453 110.313 60.2732C110.654 60.8918 108.47 61.6318 103.762 62.4931L94.3349 69.6915L90.3159 64.5635ZM39.4293 66.0798L46.5475 67.4865C39.3889 80.7734 35.5499 87.8155 35.0305 88.6128C33.8617 90.4065 34.9522 93.694 35.355 95.4252C32.828 96.0111 33.8246 92.2229 30.6266 93.0138C27.7076 93.7358 25.2327 95.5885 22.5109 93.0898C22.1763 92.7826 21.9313 91.8223 23.0723 91.3298C25.9147 90.1028 30.1142 87.8053 30.7951 86.9133C31.7237 85.6969 34.6018 78.7524 39.4293 66.0798Z" fill="#B28B67"/>
<path fill-rule="evenodd" clip-rule="evenodd" d="M65.8941 39.5551L68.8979 39.042C75.4403 45.3628 78.1101 60.5486 82.4702 62.5587C86.5924 64.4591 92.4361 62.6201 99.3821 60.1369L101.509 64.8705C95.1981 71.6708 81.753 77.416 76.3031 74.1362C67.5898 68.8924 65.5783 50.1631 65.8941 39.5551Z" fill="#DB2721"/>
<path fill-rule="evenodd" clip-rule="evenodd" d="M52.8 77.1508C64.8439 77.1508 73.7031 77.1508 79.3777 77.1508C80.5922 77.1508 80.3633 75.4042 80.1878 74.5229C78.1616 64.3513 70.2523 53.3868 70.2523 38.9078L62.586 37.7104C56.2451 47.8675 54.0523 60.3729 52.8 77.1508Z" fill="#DDE3E9"/>
<path fill-rule="evenodd" clip-rule="evenodd" d="M50.1494 66.8524C44.7313 76.5861 40.1772 83.5939 36.4869 87.8758L30.916 86.789C34.5045 64.6235 44.8964 48.264 62.0917 37.7104H63.4754L65.1271 37.7104C72.0093 61.0761 73.9066 76.6446 70.819 84.4161H46.895C47.2735 78.7296 48.4871 72.7159 50.1494 66.8524H50.1494Z" fill="#FF4133"/>
</svg>
