<svg width="220" height="44" viewBox="0 0 220 44" fill="none" xmlns="http://www.w3.org/2000/svg">
<path d="M59.9484 22C46.789 28.4441 33.3541 44 21.4871 44C9.6201 44 0 34.1503 0 22C0 9.84974 9.6201 0 21.4871 0C33.3541 0 46.058 14.9706 59.9484 22Z" fill="#1CBFA2"/>
<path d="M56.7035 35.56C53.9176 35.56 51.407 34.9898 49.1718 33.8494C46.969 32.6764 45.2359 31.0636 43.9725 29.0109C42.7415 26.9582 42.126 24.6285 42.126 22.0219C42.126 19.4153 42.7415 17.0856 43.9725 15.0329C45.2359 12.9802 46.969 11.3837 49.1718 10.2433C51.407 9.07032 53.9176 8.48384 56.7035 8.48384C59.4571 8.48384 61.8543 9.07032 63.8951 10.2433C65.9684 11.3837 67.4748 13.0291 68.4142 15.1796L62.5346 18.3564C61.174 15.9452 59.2141 14.7397 56.655 14.7397C54.6789 14.7397 53.043 15.3913 51.7472 16.6946C50.4514 17.9979 49.8035 19.7737 49.8035 22.0219C49.8035 24.2701 50.4514 26.0458 51.7472 27.3491C53.043 28.6524 54.6789 29.3041 56.655 29.3041C59.2465 29.3041 61.2064 28.0985 62.5346 25.6874L68.4142 28.9131C67.4748 30.9984 65.9684 32.6275 63.8951 33.8005C61.8543 34.9735 59.4571 35.56 56.7035 35.56Z" fill="black"/>
<path d="M85.8488 8.48384C89.8981 8.48384 93.008 9.46131 95.1785 11.4163C97.3489 13.3386 98.4341 16.2548 98.4341 20.1647V35.169H91.3397V31.8944C89.9143 34.3381 87.258 35.56 83.3706 35.56C81.3622 35.56 79.6129 35.2178 78.1227 34.5336C76.6649 33.8494 75.5473 32.9045 74.7699 31.6989C73.9924 30.4934 73.6037 29.1249 73.6037 27.5935C73.6037 25.1498 74.5107 23.2274 76.3248 21.8264C78.1713 20.4253 81.0058 19.7248 84.8284 19.7248H90.8538C90.8538 18.0631 90.3517 16.7924 89.3474 15.9127C88.3432 15.0003 86.8368 14.5442 84.8284 14.5442C83.4354 14.5442 82.0586 14.7723 80.6981 15.2284C79.3699 15.652 78.2361 16.2385 77.2966 16.9879L74.5755 11.6606C76.0009 10.6506 77.7016 9.86859 79.6776 9.31469C81.6861 8.76079 83.7432 8.48384 85.8488 8.48384ZM85.2657 30.4282C86.5615 30.4282 87.7115 30.135 88.7157 29.5485C89.72 28.9294 90.4327 28.0334 90.8538 26.8604V24.1723H85.6544C82.5446 24.1723 80.9896 25.1987 80.9896 27.2514C80.9896 28.2289 81.3622 29.0109 82.1072 29.5973C82.8847 30.1512 83.9375 30.4282 85.2657 30.4282Z" fill="black"/>
<path d="M120.643 35.56C117.857 35.56 115.346 34.9898 113.111 33.8494C110.908 32.6764 109.175 31.0636 107.912 29.0109C106.681 26.9582 106.065 24.6285 106.065 22.0219C106.065 19.4153 106.681 17.0856 107.912 15.0329C109.175 12.9802 110.908 11.3837 113.111 10.2433C115.346 9.07032 117.857 8.48384 120.643 8.48384C123.396 8.48384 125.794 9.07032 127.834 10.2433C129.908 11.3837 131.414 13.0291 132.354 15.1796L126.474 18.3564C125.113 15.9452 123.153 14.7397 120.594 14.7397C118.618 14.7397 116.982 15.3913 115.687 16.6946C114.391 17.9979 113.743 19.7737 113.743 22.0219C113.743 24.2701 114.391 26.0458 115.687 27.3491C116.982 28.6524 118.618 29.3041 120.594 29.3041C123.186 29.3041 125.146 28.0985 126.474 25.6874L132.354 28.9131C131.414 30.9984 129.908 32.6275 127.834 33.8005C125.794 34.9735 123.396 35.56 120.643 35.56Z" fill="black"/>
<path d="M156.389 33.8982C155.644 34.4521 154.72 34.8757 153.619 35.169C152.55 35.4296 151.416 35.56 150.218 35.56C147.108 35.56 144.694 34.7617 142.977 33.1651C141.293 31.5686 140.451 29.2226 140.451 26.1273V15.3262H136.417V9.46131H140.451V3.05884H148.031V9.46131H154.542V15.3262H148.031V26.0295C148.031 27.1374 148.306 28.0008 148.857 28.6199C149.44 29.2064 150.25 29.4996 151.287 29.4996C152.485 29.4996 153.506 29.1738 154.348 28.5221L156.389 33.8982Z" fill="black"/>
<path d="M189.41 8.87482V35.169H182.219V32.041C181.214 33.1814 180.016 34.0612 178.623 34.6802C177.23 35.2667 175.724 35.56 174.104 35.56C170.67 35.56 167.949 34.5662 165.94 32.5786C163.932 30.5911 162.928 27.6424 162.928 23.7325V8.87482H170.508V22.6084C170.508 26.8441 172.274 28.962 175.805 28.962C177.619 28.962 179.076 28.3755 180.178 27.2025C181.279 25.997 181.83 24.2212 181.83 21.8753V8.87482H189.41Z" fill="black"/>
<path d="M207.658 35.56C205.487 35.56 203.365 35.2993 201.292 34.778C199.219 34.2241 197.567 33.5398 196.336 32.7253L198.863 27.2514C200.029 28.0008 201.438 28.6199 203.09 29.1086C204.742 29.5648 206.362 29.7928 207.949 29.7928C211.156 29.7928 212.76 28.9946 212.76 27.398C212.76 26.6486 212.323 26.111 211.448 25.7852C210.573 25.4594 209.229 25.1824 207.415 24.9543C205.277 24.6285 203.511 24.2538 202.118 23.8302C200.725 23.4067 199.51 22.6573 198.474 21.582C197.47 20.5068 196.967 18.9754 196.967 16.9879C196.967 15.3262 197.437 13.86 198.377 12.5892C199.348 11.2859 200.741 10.2759 202.556 9.55906C204.402 8.84224 206.572 8.48384 209.067 8.48384C210.913 8.48384 212.744 8.69562 214.558 9.11919C216.404 9.51019 217.927 10.0641 219.125 10.7809L216.599 16.2059C214.299 14.9026 211.788 14.2509 209.067 14.2509C207.447 14.2509 206.232 14.479 205.422 14.9352C204.613 15.3913 204.208 15.9778 204.208 16.6946C204.208 17.5092 204.645 18.0794 205.52 18.4052C206.394 18.7311 207.787 19.0406 209.699 19.3338C211.837 19.6922 213.586 20.0832 214.946 20.5068C216.307 20.8978 217.489 21.6309 218.494 22.7061C219.498 23.7814 220 25.2802 220 27.2025C220 28.8317 219.514 30.2816 218.542 31.5523C217.57 32.823 216.145 33.8168 214.266 34.5336C212.42 35.2178 210.217 35.56 207.658 35.56Z" fill="black"/>
</svg>
