<svg width="132" height="166" viewBox="0 0 132 166" fill="none" xmlns="http://www.w3.org/2000/svg">
<path fill-rule="evenodd" clip-rule="evenodd" d="M64.0052 27.6461C62.2713 25.6199 61.0978 23.1368 61.2939 20.3543C61.8589 12.3374 73.0683 14.101 75.2487 18.1473C77.4292 22.1936 77.1701 32.4572 74.352 33.1804C73.2282 33.4688 70.8341 32.7623 68.3975 31.3002L69.9269 42.0725H60.8962L64.0052 27.6461Z" fill="#B28B67"/>
<mask id="mask0_1537_95" style="mask-type:alpha" maskUnits="userSpaceOnUse" x="52" y="12" width="23" height="20">
<path d="M74.6591 16.5783C74.58 16.0894 74.7366 15.8494 72.7621 14.472C70.7876 13.0946 67.5996 11.4701 64.3888 12.1771C60.2218 13.0946 58.5668 15.8311 56.9599 17.1615C55.5114 18.3608 54.058 18.5007 53.1966 19.9889C52.3353 21.477 51.8771 25.7584 52.626 27.4606C53.6592 29.8086 55.6966 30.441 57.1839 31.1174C59.7346 32.2776 63.3401 31.0523 63.4274 30.8493C64.103 29.2793 67.7396 24.8502 69.927 22.9894C71.5354 21.6211 75.0305 18.873 74.6591 16.5783Z" fill="white"/>
</mask>
<g mask="url(#mask0_1537_95)">
<path d="M74.6591 16.5783C74.58 16.0894 74.7366 15.8494 72.7621 14.472C70.7876 13.0946 67.5996 11.4701 64.3888 12.1771C60.2218 13.0946 58.5668 15.8311 56.9599 17.1615C55.5114 18.3608 54.058 18.5007 53.1966 19.9889C52.3353 21.477 51.8771 25.7584 52.626 27.4606C53.6592 29.8086 55.6966 30.441 57.1839 31.1174C59.7346 32.2776 63.3401 31.0523 63.4274 30.8493C64.103 29.2793 67.7396 24.8502 69.927 22.9894C71.5354 21.6211 75.0305 18.873 74.6591 16.5783Z" fill="#5C63AB"/>
<path fill-rule="evenodd" clip-rule="evenodd" d="M56.9293 16.224C57.6066 20.487 59.3847 24.3859 62.2636 27.9206C58.9067 25.3275 56.695 21.7017 55.6285 17.0431L56.9293 16.224ZM55.2516 17.8506C56.3627 22.4307 59.2477 26.7584 63.9066 30.834C58.5158 27.5944 55.1293 23.4138 53.7471 18.2923L55.2516 17.8506Z" fill="black" fill-opacity="0.2"/>
</g>
<path fill-rule="evenodd" clip-rule="evenodd" d="M58.6426 73.1741L86.6024 119.711L107.564 159.055H112.079L76.9574 73.1741L58.6426 73.1741Z" fill="#997659"/>
<path fill-rule="evenodd" clip-rule="evenodd" d="M104.804 157.238C104.383 158.357 104.172 159.194 104.172 159.75C104.172 160.425 104.285 161.411 104.511 162.707C105.298 162.707 112.373 162.707 125.734 162.707C126.285 160.892 125.967 159.912 124.779 159.767C123.591 159.622 122.604 159.492 121.818 159.375L111.954 154.997C111.764 154.913 111.541 154.998 111.457 155.187C111.455 155.19 111.454 155.193 111.452 155.196L110.818 156.728C109.718 157.239 108.825 157.494 108.137 157.494C107.578 157.494 106.806 157.269 105.822 156.82L105.822 156.82C105.444 156.648 104.997 156.813 104.824 157.189C104.817 157.205 104.81 157.222 104.804 157.238Z" fill="#E4E4E4"/>
<path fill-rule="evenodd" clip-rule="evenodd" d="M101.742 152.755L110.45 150.132C106.635 138.778 101.959 126.284 96.4227 112.649C90.8864 99.0137 84.9405 85.8555 78.5851 73.1741H53.9932C61.0589 89.2155 68.5496 103.791 76.4652 116.901C84.3808 130.011 92.8065 141.962 101.742 152.755Z" fill="#DB2721"/>
<path fill-rule="evenodd" clip-rule="evenodd" d="M56.8051 73.1741C54.1662 89.5276 49.0765 110.421 48.5962 111.066C48.2759 111.496 36.748 115.342 14.0122 122.603L14.9875 126.567C42.0998 122.673 56.3857 119.651 57.8451 117.502C60.0343 114.28 70.9651 88.8192 75.1988 73.1741H56.8051Z" fill="#B28B67"/>
<path fill-rule="evenodd" clip-rule="evenodd" d="M22.0042 119.177L23.722 125.561C44.0005 127.332 56.4255 126.052 60.9972 121.723C65.5688 117.393 70.7792 101.21 76.6282 73.1741H53.1783C49.4724 96.1319 47.4007 108.093 46.9629 109.056C46.5251 110.02 38.2055 113.394 22.0042 119.177Z" fill="#FF4133"/>
<path fill-rule="evenodd" clip-rule="evenodd" d="M15.1184 120.951C13.94 120.731 13.0764 120.67 12.5277 120.766C11.8604 120.883 10.9063 121.164 9.66548 121.61C9.80255 122.382 11.0344 129.319 13.361 142.423C15.2502 142.65 16.1627 142.168 16.0988 140.978C16.0349 139.787 15.9921 138.797 15.9704 138.006L18.5775 127.575C18.6276 127.374 18.505 127.171 18.3036 127.12C18.3002 127.119 18.2967 127.119 18.2933 127.118L16.6702 126.761C15.974 125.771 15.566 124.938 15.4462 124.264C15.3489 123.716 15.4365 122.92 15.7089 121.877L15.7089 121.877C15.8134 121.477 15.5725 121.067 15.1708 120.962C15.1535 120.958 15.136 120.954 15.1184 120.951Z" fill="#E4E4E4"/>
<path fill-rule="evenodd" clip-rule="evenodd" d="M59.8054 34.6914C59.8932 34.4067 59.9824 34.1211 60.0729 33.8347L60.407 33.9912C60.4592 33.9377 60.5117 33.8855 60.5646 33.8347L71.0968 35.456C71.0968 41.3528 75.8094 46.87 78.7907 51.617C83.425 58.9962 91.6714 67.1753 86.3841 78.1381C81.6201 88.016 69.2107 89.6202 49.156 82.9504C49.156 77.63 53.5484 72.2813 53.6884 65.8121C53.8216 59.6536 54.9783 40.9946 59.8054 34.6914Z" fill="#C1DEE2"/>
<path fill-rule="evenodd" clip-rule="evenodd" d="M72.8884 75.3372C73.5928 71.7183 74.0497 69.3023 74.2592 68.0892C79.8702 74.4018 83.1118 77.5947 83.9838 77.6679C85.6239 77.8056 86.8357 76.3577 87.1808 76.7647C87.7511 78.4505 86.1403 82.6703 83.0612 83.2839C81.5909 83.5768 79.3156 80.5582 78.3782 79.4886C78.0095 79.0679 76.1795 77.6841 72.8884 75.3372ZM82.5807 56.0427C84.0352 56.0427 84.8165 56.6414 85.6765 57.8492C86.5365 59.0571 87.3504 64.7535 85.9696 64.7535C84.5888 64.7535 78.8037 62.5515 78.8037 61.0711C78.8037 59.5907 82.7511 58.9637 82.7511 57.8492C82.7511 56.7348 81.1262 56.0427 82.5807 56.0427Z" fill="#B28B67"/>
<path fill-rule="evenodd" clip-rule="evenodd" d="M69.9519 80.8442C69.8655 81.1521 69.7775 81.4659 69.6877 81.7854C53.2082 70.3186 53.2003 56.4226 58.1014 40.8469C54.4073 56.1808 55.9123 69.1134 69.9519 80.8442Z" fill="black" fill-opacity="0.2"/>
</svg>
