<svg width="132" height="166" viewBox="0 0 132 166" fill="none" xmlns="http://www.w3.org/2000/svg">
<path fill-rule="evenodd" clip-rule="evenodd" d="M75.6434 25.0004C76.8408 29.3932 78.4012 39.2673 76.8089 40.8162H66.7352C66.7342 40.7984 66.7332 40.7806 66.7322 40.7629C62.9984 40.3515 60.0945 37.1999 60.0945 33.373V26.1105C60.0945 22.004 63.4382 18.675 67.5629 18.675H68.2576C72.0034 18.675 75.1051 21.4205 75.6434 25.0004Z" fill="#191847"/>
<path fill-rule="evenodd" clip-rule="evenodd" d="M64.0068 31.9862C62.4061 30.1157 61.3228 27.8233 61.5038 25.2547C62.0254 17.8537 72.3736 19.4818 74.3865 23.2172C76.3994 26.9526 76.1603 36.4277 73.5587 37.0953C72.5212 37.3615 70.3111 36.7093 68.0616 35.3595L69.4736 45.3042H61.1367L64.0068 31.9862Z" fill="#D4A181"/>
<path fill-rule="evenodd" clip-rule="evenodd" d="M66.2604 30.7359C66.6445 34.8437 66.4906 39.5348 65.3459 40.6483H55.2722C54.7109 30.9395 60.1353 34.6992 60.1353 25.5581C60.4735 25.2291 60.7931 24.9035 61.1093 24.6227L61.0981 24.3539C62.8425 20.7985 65.0555 19.0209 67.7372 19.0209C71.7597 19.0209 73.0294 20.8843 74.1105 22.4664C73.3021 25.228 70.165 25.6374 67.3774 27.3587C67.0489 27.093 66.6299 26.9337 66.1736 26.9337C65.1184 26.9337 64.263 27.7853 64.263 28.8358C64.263 29.8863 65.1184 30.7379 66.1736 30.7379C66.2027 30.7379 66.2316 30.7372 66.2604 30.7359Z" fill="#191847"/>
<path fill-rule="evenodd" clip-rule="evenodd" d="M47.731 107.93C56.0641 110.251 63.2537 111.411 69.2997 111.411C75.3457 111.411 80.9616 109.624 86.1472 106.051C77.9925 103.669 71.2767 102.478 65.9998 102.478C60.723 102.478 54.6334 104.296 47.731 107.93Z" fill="#1F28CF"/>
<path fill-rule="evenodd" clip-rule="evenodd" d="M76.5136 114.756C76.4333 114.636 76.3654 114.505 76.3116 114.363C75.1977 111.431 57.3563 79.7927 55.5789 74.0084H75.6658C77.0172 78.4063 83.0998 106.005 83.9558 111.511C86.6567 120.197 92.2176 148.326 92.9275 150.275C93.6743 152.325 89.4723 154.461 88.3526 151.94C86.5709 147.93 82.3258 136.834 80.4355 130.059C78.6635 123.707 77.2205 117.993 76.5136 114.756Z" fill="#BA8B72"/>
<path fill-rule="evenodd" clip-rule="evenodd" d="M60.0797 118.619C51.9229 120.671 22.087 124.382 20.0395 124.964C17.9333 125.562 16.0865 121.24 18.6899 120.304C22.8323 118.814 34.2466 115.372 41.1671 113.967C46.7336 112.838 51.813 111.916 55.2232 111.376C54.9343 101.839 53.6137 78.9516 54.4793 74.0084H72.2525C71.4224 78.7486 64.4055 113.336 63.1013 116.798C62.6874 118.034 61.4524 118.58 60.0797 118.619Z" fill="#D4A181"/>
<path fill-rule="evenodd" clip-rule="evenodd" d="M18.8724 119.152C17.7845 118.949 16.9873 118.892 16.4807 118.981C15.8647 119.089 14.9839 119.349 13.8384 119.76C13.9649 120.473 15.1021 126.878 17.25 138.974C18.994 139.184 19.8365 138.739 19.7775 137.64C19.7184 136.541 19.6789 135.627 19.6589 134.897L22.0657 125.267C22.112 125.082 21.9988 124.894 21.8129 124.847C21.8097 124.847 21.8065 124.846 21.8033 124.845L20.305 124.516C19.6622 123.601 19.2855 122.833 19.175 122.21C19.0852 121.704 19.166 120.97 19.4175 120.007L19.4175 120.007C19.514 119.637 19.2916 119.259 18.9207 119.162C18.9047 119.158 18.8886 119.155 18.8724 119.152Z" fill="#E4E4E4"/>
<path fill-rule="evenodd" clip-rule="evenodd" d="M87.0776 151.614C86.6889 152.647 86.4946 153.42 86.4946 153.932C86.4946 154.556 86.599 155.466 86.8077 156.663C87.5344 156.663 94.0651 156.663 106.4 156.663C106.909 154.987 106.615 154.082 105.518 153.949C104.421 153.815 103.51 153.694 102.784 153.587L93.6782 149.545C93.503 149.467 93.2976 149.546 93.2195 149.72C93.2182 149.723 93.2169 149.726 93.2156 149.729L92.6303 151.143C91.6148 151.614 90.7896 151.85 90.1547 151.85C89.6389 151.85 88.9266 151.643 88.0177 151.228L88.0177 151.228C87.6689 151.069 87.2565 151.221 87.0966 151.568C87.0897 151.583 87.0834 151.599 87.0776 151.614Z" fill="#E4E4E4"/>
<path fill-rule="evenodd" clip-rule="evenodd" d="M54.5367 74.0084C62.3688 71.7775 69.7793 71.7775 76.7683 74.0084C79.1999 85.0534 85.1082 89.4372 86.1472 106.371C74.3367 112.214 59.7472 102.204 47.5893 107.902C44.1157 99.9324 48.9788 80.7398 54.5367 74.0084Z" fill="#2B44FF"/>
<path fill-rule="evenodd" clip-rule="evenodd" d="M88.2315 60.2825L101.947 58.42C104.69 56.9007 107.214 55.8722 109.519 55.3344C110.167 55.3155 111.199 55.5502 109.662 56.8257C108.125 58.1012 106.566 59.5121 106.84 60.1928C107.113 60.8736 108.543 60.6203 108.779 61.6673C108.937 62.3653 106.618 62.4787 101.821 62.0075L90.6922 66.4L88.2315 60.2825ZM45.1473 63.4431L52.7538 63.4715C44.4131 82.1582 40.0641 91.9422 39.7069 92.8236C38.9031 94.8068 40.604 97.8272 41.3314 99.4503C38.9624 100.506 39.2148 96.5971 36.2263 97.9814C33.4985 99.2448 31.4235 101.534 28.2719 99.5981C27.8845 99.3601 27.4599 98.4639 28.4857 97.7636C31.0416 96.0188 34.7247 92.9651 35.2224 91.96C35.901 90.5893 39.2093 81.0837 45.1473 63.4431Z" fill="#D4A181"/>
<path fill-rule="evenodd" clip-rule="evenodd" d="M65.9824 39.4251L71.938 39.8201C73.4047 53.0313 81.3941 61.3761 99.2817 58.551L101.658 75.5642C84.9394 77.7153 70.2771 71.0514 67.2721 53.0089C66.4943 48.3382 65.88 43.4775 65.9824 39.4251Z" fill="#AFB9C5"/>
<path fill-rule="evenodd" clip-rule="evenodd" d="M63.0442 37.7014L72.0677 39.7589C72.0677 55.2105 77.0116 65.0688 79.5474 76.4293H55.1773C54.834 80.3548 54.6232 84.3895 54.5133 88.5334H36.2659C40.4008 66.6297 49.1284 49.6839 62.4485 37.6959H63.0395L63.0442 37.7014Z" fill="#C5CFD6"/>
<path fill-rule="evenodd" clip-rule="evenodd" d="M59.0222 54.3856C58.3942 64.0141 58.7635 71.362 60.1303 76.4293H55.1772C55.8573 68.6529 57.0573 61.305 59.0222 54.3856V54.3856Z" fill="black" fill-opacity="0.1"/>
</svg>
